<svg width="40" height="40" viewBox="0 0 40 40" xmlns="http://www.w3.org/2000/svg">
  <defs>
    <linearGradient id="bg" x1="0" y1="0" x2="0" y2="1">
      <stop offset="0%" stop-color="#4FC3F7"/>
      <stop offset="100%" stop-color="#0277BD"/>
    </linearGradient>
  </defs>
  <rect width="40" height="40" rx="9" fill="url(#bg)"/>
  <rect width="40" height="20" rx="9" fill="white" fill-opacity="0.06"/>

  <!-- row 1: check -->
  <circle cx="11" cy="14" r="3.2" fill="white"/>
  <path d="M8.5 14 L10.5 16.5 L14.5 11" fill="none" stroke="#0277BD" stroke-width="1.4" stroke-linecap="round" stroke-linejoin="round"/>
  <line x1="16" y1="14" x2="32" y2="14" stroke="white" stroke-width="2.4" stroke-linecap="round"/>

  <!-- row 2: dot + line -->
  <circle cx="11" cy="21" r="1.8" fill="white" fill-opacity="0.75"/>
  <line x1="14.5" y1="21" x2="31" y2="21" stroke="white" stroke-width="2" stroke-linecap="round"/>

  <!-- row 3: dot + line -->
  <circle cx="11" cy="28" r="1.8" fill="white" fill-opacity="0.75"/>
  <line x1="14.5" y1="28" x2="29" y2="28" stroke="white" stroke-width="2" stroke-linecap="round"/>

  <!-- row 4: dot + line + note -->
  <circle cx="11" cy="35" r="1.8" fill="white" fill-opacity="0.75"/>
  <line x1="14.5" y1="35" x2="27" y2="35" stroke="white" stroke-width="2" stroke-linecap="round"/>
  <line x1="31" y1="30" x2="31" y2="36.5" stroke="white" stroke-width="1.6" stroke-linecap="round"/>
  <path d="M31 30 Q36.5 32.5 35 37" fill="none" stroke="white" stroke-width="1.4" stroke-linecap="round"/>
  <ellipse cx="28.5" cy="37.5" rx="3.2" ry="2.2" fill="white" transform="rotate(-18 28.5 37.5)"/>
</svg>
